PathFileType  4	(X/Y/Z) C:\Users\antoi\Documents\MyRepositories\mobilecap\ResultsAnalysis
DataRate	CameraRate	NumFrames	NumMarkers	Units	OrigDataRate	OrigDataStartFrame	OrigNumFrames
100.0	100.0	4	51	mm	100.0	285	1137
Frame#	Time	r_knee			r_shank_antsup			r_ankle			r_calc			r_5meta			r_toe			L_knee			L_shank_antsup			L_ankle			L_calc			L_5meta			L_toe			r_sh2			r_sh3			r_sh4			L_sh2			L_sh3			r_thigh1			r_thigh2			r_thigh3			r_thigh4			r_thigh5			L_thigh1			L_thigh2			L_thigh3			L_thigh4			r.ASIS			r.PSIS			L.ASIS			L.PSIS			C7			R_Shoulder			L_Shoulder			R_Sternum			L_Sternum			R_humerus			R_elbow_med			R_elbow_lat			R_forearm			R_wrist_radius			R_wrist_ulna			L_humerus			L_elbow_med			L_elbow_lat			L_forearm			L_wrist_radius			L_wrist_ulna			R_HJC			L_HJC			R_HJC_reg			L_HJC_reg			
		X1	Y1	Z1	X2	Y2	Z2	X3	Y3	Z3	X4	Y4	Z4	X5	Y5	Z5	X6	Y6	Z6	X7	Y7	Z7	X8	Y8	Z8	X9	Y9	Z9	X10	Y10	Z10	X11	Y11	Z11	X12	Y12	Z12	X13	Y13	Z13	X14	Y14	Z14	X15	Y15	Z15	X16	Y16	Z16	X17	Y17	Z17	X18	Y18	Z18	X19	Y19	Z19	X20	Y20	Z20	X21	Y21	Z21	X22	Y22	Z22	X23	Y23	Z23	X24	Y24	Z24	X25	Y25	Z25	X26	Y26	Z26	X27	Y27	Z27	X28	Y28	Z28	X29	Y29	Z29	X30	Y30	Z30	X31	Y31	Z31	X32	Y32	Z32	X33	Y33	Z33	X34	Y34	Z34	X35	Y35	Z35	X36	Y36	Z36	X37	Y37	Z37	X38	Y38	Z38	X39	Y39	Z39	X40	Y40	Z40	X41	Y41	Z41	X42	Y42	Z42	X43	Y43	Z43	X44	Y44	Z44	X45	Y45	Z45	X46	Y46	Z46	X47	Y47	Z47	X48	Y48	Z48	X49	Y49	Z49	X50	Y50	Z50	X51	Y51	Z51	

285	2.84000000	-174.26936	433.15963	-360.57885	-135.56639	323.78175	-367.96040	-294.01893	92.67399	-388.05831	-341.92622	51.49486	-440.48430	-189.53552	41.37440	-344.22231	-149.14076	59.78615	-382.81578	-156.67522	433.73814	-786.71098	-116.18650	321.39199	-751.42122	-296.03116	91.68360	-789.85784	-347.20416	55.38079	-753.37967	-186.41902	37.07985	-816.83348	-145.96555	55.32776	-765.02023	-182.13511	221.48619	-383.32142	-195.17186	341.56561	-325.33032	-251.89124	247.08988	-347.69915	-161.23612	365.47170	-815.92878	-214.95010	256.91497	-831.69564	-406.06691	625.30986	-396.25690	-310.92599	590.91054	-383.26997	-309.74626	534.31710	-342.23130	-451.42742	527.71481	-362.17207	-343.42689	489.80264	-344.05862	-387.03202	607.77564	-774.88347	-264.03896	570.06396	-772.68448	-438.09800	509.42417	-802.69949	-301.02994	471.18154	-806.81111	-380.31743	624.06808	-457.85474	-533.53524	720.10801	-536.39960	-369.11540	618.15134	-694.88379	-530.69432	721.05395	-643.92697	-247.27048	1074.43318	-566.60439	-185.23537	1033.75652	-424.83935	-168.41955	1036.16304	-704.14832	-149.54921	970.07197	-542.56102	-146.36462	967.77341	-583.17453	-209.25660	925.77978	-343.62808	-371.01563	774.13084	-330.03489	-313.80878	785.56086	-269.93869	-208.32586	768.72580	-330.72290	-134.39231	773.66716	-398.37807	-126.82959	738.86304	-387.05953	-174.87601	910.48653	-794.61760	-288.61506	738.67825	-815.31318	-249.13033	759.20221	-881.47570	-154.45661	754.53755	-828.06029	-71.20591	763.27447	-734.44203	-60.48297	734.15382	-744.30705	-486.77276	584.53097	-484.57917	-474.23410	575.44332	-673.32325	-466.53704	579.04040	-493.49902	-462.39845	580.41761	-650.10154	
286	2.85000000	-173.70422	433.56272	-361.09975	-135.32247	323.72007	-368.18671	-293.98067	92.73395	-388.02655	-341.96769	51.54318	-440.38585	-189.60291	41.49991	-344.06672	-149.17929	59.75112	-382.81383	-155.77819	433.85069	-785.19415	-115.85362	321.16059	-750.43174	-295.99990	91.77178	-789.87043	-347.21376	55.36556	-753.38430	-186.42004	37.08689	-816.82247	-145.96718	55.33448	-764.97587	-181.94391	221.26483	-383.41994	-194.99286	341.73339	-325.47075	-251.90362	247.33277	-347.75088	-160.66414	365.44047	-814.78541	-214.58141	256.91703	-830.92854	-401.87618	631.41204	-395.25489	-307.29485	594.22788	-383.13971	-307.18322	537.81883	-342.25689	-449.00946	534.00079	-362.20430	-341.69809	493.93997	-344.25589	-382.81458	612.97891	-774.30075	-260.45795	572.87788	-771.77015	-435.55779	515.62839	-802.45455	-299.23812	474.74445	-805.94448	-377.13090	630.90721	-457.77638	-529.75408	728.39696	-536.11960	-365.77808	624.25217	-695.10053	-526.92255	729.49509	-643.86769	-245.92381	1083.49535	-566.88987	-184.10958	1042.79451	-424.52749	-167.12529	1045.26132	-704.94915	-147.89563	979.65187	-542.49310	-144.56400	977.49531	-583.33399	-208.93631	935.33078	-343.23604	-371.30979	784.04172	-330.32677	-314.34598	795.68506	-269.96219	-208.58756	777.91080	-330.38629	-134.50579	782.46986	-397.73842	-127.13620	748.07375	-385.54966	-174.44504	919.22940	-794.88975	-289.16988	748.02391	-814.54720	-249.81375	768.01139	-880.92900	-155.02553	762.81580	-827.72122	-71.46457	771.20365	-734.09630	-61.08916	742.04274	-743.94202	-484.06509	592.39479	-484.41870	-471.74208	582.98532	-673.16015	-463.75964	586.09902	-493.51586	-459.63904	587.69763	-650.32793	
287	2.86000000	-173.36677	434.03431	-361.43051	-135.28358	323.85224	-368.22636	-293.96348	92.80910	-387.99239	-342.06952	51.60413	-440.28573	-189.60622	41.38082	-344.12508	-149.22426	59.75770	-382.78920	-155.19787	434.03600	-783.81273	-115.65778	321.22850	-749.97778	-295.98794	91.82260	-789.85802	-347.24327	55.37195	-753.45787	-186.41991	37.12255	-816.79825	-146.00066	55.35916	-764.92866	-182.15751	221.49559	-383.28935	-194.94398	341.88704	-325.51904	-251.98350	247.47610	-347.68289	-160.30398	365.51621	-813.79480	-214.31007	256.89618	-830.33952	-397.68607	637.14294	-395.02034	-303.86804	598.03286	-382.77061	-304.70993	541.41488	-342.24972	-446.63005	540.62156	-362.09627	-340.12350	498.44113	-344.28948	-378.68135	618.34985	-773.58271	-256.94803	575.80146	-770.95697	-433.05599	522.22007	-802.14309	-297.60585	478.64490	-805.23852	-374.13684	638.12569	-457.54278	-526.17281	737.27548	-535.97295	-362.90543	630.69343	-695.03902	-523.20669	738.43179	-643.72203	-244.86294	1093.18711	-567.14825	-183.06402	1052.28772	-424.36303	-166.16482	1054.99594	-705.40867	-146.31702	990.26936	-542.78380	-143.16182	987.78735	-583.76262	-208.90195	945.46716	-342.82991	-371.61629	794.63385	-330.90671	-315.17018	806.39471	-270.12184	-209.22824	787.85217	-330.00838	-134.89771	791.83332	-397.25712	-127.68063	757.79429	-384.25395	-174.27519	928.67458	-795.25262	-290.16574	758.00629	-813.60437	-250.91002	777.40820	-880.12068	-155.98493	771.64956	-827.29433	-72.15879	779.81127	-733.88603	-62.07787	750.45960	-743.52800	-481.70707	600.83269	-484.10816	-469.59663	590.96090	-672.83982	-461.42752	593.71208	-493.44892	-457.10779	595.39669	-650.38017	
288	2.87000000	-173.27454	434.68272	-361.60037	-135.44775	324.05762	-368.16477	-293.99353	92.85649	-387.96974	-342.11970	51.62819	-440.23357	-189.64085	41.45231	-343.96834	-149.25915	59.79236	-382.76136	-154.78468	434.41931	-782.75186	-115.60621	321.42815	-749.63217	-295.99407	91.88071	-789.84309	-347.28142	55.41723	-753.56726	-186.41682	37.17312	-816.77715	-146.02667	55.39584	-764.86113	-182.56315	222.01847	-383.08341	-195.01219	341.98936	-325.54732	-252.02515	247.47178	-347.57750	-160.16207	365.71419	-813.19219	-214.14378	257.07297	-830.04050	-393.51092	642.39951	-395.58419	-300.42971	602.20689	-382.35423	-302.29785	545.11882	-342.20933	-444.30329	547.47727	-362.06120	-338.74458	503.13047	-344.27933	-374.64242	623.95625	-772.86981	-253.57893	578.88992	-770.38391	-430.67775	529.03029	-801.73360	-296.15782	482.69096	-804.76590	-371.39394	645.75375	-457.01803	-522.64767	746.59173	-535.74264	-360.26909	637.91802	-694.89350	-519.48695	747.60784	-643.68501	-244.05584	1103.52490	-567.50616	-182.31911	1062.48306	-424.05783	-165.49855	1065.39796	-705.76318	-144.89142	1001.49989	-543.17289	-141.99457	998.65698	-584.02262	-209.12762	956.17379	-342.51742	-371.71592	806.14985	-331.69192	-316.25968	817.57218	-270.25639	-210.13882	798.37280	-329.70775	-135.50455	801.74245	-396.76631	-128.49826	767.70829	-383.67516	-174.43801	938.74676	-795.54484	-291.56383	768.69536	-812.62945	-252.42285	787.44382	-879.26881	-157.33485	781.06150	-826.83693	-73.26476	789.05181	-733.66607	-63.40980	759.44340	-743.13983	-479.50419	609.67263	-483.78210	-467.45565	599.44694	-672.49958	-459.40064	602.10527	-493.10249	-454.79768	603.58479	-650.28269	
